<?xml version="1.0" encoding="UTF-8"?>
<svg width="100px" height="100px" viewBox="0 0 100 100" version="1.1" xmlns="http://www.w3.org/2000/svg" xmlns:xlink="http://www.w3.org/1999/xlink">
    <g id="Page-1" stroke="none" stroke-width="1" fill="none" fill-rule="evenodd">
        <g id="Artboard" fill-rule="nonzero">
            <g id="Logo-Outlines" transform="translate(14.000000, 10.000000)">
                <g id="logo" transform="translate(1.680672, 0.000000)">
                    <path d="M30.6102946,32.4230068 C25.1000784,41.977908 21.1708151,51.9499688 19.6160274,60.1385726 C17.927117,69.0334194 19.1653393,75.6644898 22.143641,77.3821204 C23.5432528,78.1892289 25.8588072,78.1597615 28.766023,77.1330144 C32.0013269,75.9903958 35.6724055,73.7183975 39.3357162,70.5161489 C45.1874049,65.4011422 51.3579598,57.338465 56.9624708,47.6200316 C62.2973677,38.3690579 66.1066069,29.0740413 67.6882042,21.3969263 C69.6747746,11.7539069 68.4453371,4.40024296 65.2834101,2.57686679 C62.3150424,0.865092734 55.7999635,3.26041404 48.8292041,9.32674245 C42.5526911,14.7889879 36.0524209,22.9862573 30.6102946,32.4230068 Z M27.1160882,30.4079241 C32.7704279,20.6031925 39.5468243,12.0577097 46.1812282,6.28400334 C54.3170443,-0.796219734 62.3726567,-3.75793064 67.2984311,-0.917375307 C72.4353929,2.04493648 73.939661,11.0424516 71.6388534,22.210811 C69.9622042,30.3493104 65.9927212,40.0353419 60.4566859,49.6350994 C54.647792,59.7079403 48.2177754,68.1096399 41.9903625,73.5530701 C33.7058824,80.7948706 25.1979082,83.7996484 20.1285639,80.8763301 C15.2205445,78.0458029 13.6783627,69.7869335 15.6532152,59.386139 C17.2979552,50.723783 21.3917977,40.334037 27.1160882,30.4079241 Z" id="Shape-Copy-5" fill="#000080"></path>
                    <path d="M27.2489501,32.4230068 C21.7387338,41.977908 17.8094706,51.9499688 16.2546829,60.1385726 C14.5657725,69.0334194 15.8039948,75.6644898 18.7822965,77.3821204 C20.1819082,78.1892289 22.4974627,78.1597615 25.4046784,77.1330144 C28.6399824,75.9903958 32.311061,73.7183975 35.9743716,70.5161489 C41.8260604,65.4011422 47.9966152,57.338465 53.6011263,47.6200316 C58.9360232,38.3690579 62.7452624,29.0740413 64.3268596,21.3969263 C66.31343,11.7539069 65.0839926,4.40024296 61.9220656,2.57686679 C58.9536978,0.865092734 52.438619,3.26041404 45.4678595,9.32674245 C39.1913466,14.7889879 32.6910764,22.9862573 27.2489501,32.4230068 Z M23.7547436,30.4079241 C29.4090833,20.6031925 36.1854798,12.0577097 42.8198837,6.28400334 C50.9556997,-0.796219734 59.0113121,-3.75793064 63.9370866,-0.917375307 C69.0740483,2.04493648 70.5783164,11.0424516 68.2775088,22.210811 C66.6008597,30.3493104 62.6313766,40.0353419 57.0953414,49.6350994 C51.2864475,59.7079403 44.8564309,68.1096399 38.629018,73.5530701 C30.3445379,80.7948706 21.8365636,83.7996484 16.7672194,80.8763301 C11.8592,78.0458029 10.3170182,69.7869335 12.2918706,59.386139 C13.9366106,50.723783 18.0304532,40.334037 23.7547436,30.4079241 Z" id="Shape" fill="#00D8FF"></path>
                    <path d="M23.8876056,32.4230068 C18.3773893,41.977908 14.448126,51.9499688 12.8933384,60.1385726 C11.204428,69.0334194 12.4426503,75.6644898 15.4209519,77.3821204 C16.8205637,78.1892289 19.1361181,78.1597615 22.0433339,77.1330144 C25.2786379,75.9903958 28.9497164,73.7183975 32.6130271,70.5161489 C38.4647159,65.4011422 44.6352707,57.338465 50.2397818,47.6200316 C55.5746786,38.3690579 59.3839178,29.0740413 60.9655151,21.3969263 C62.9520855,11.7539069 61.7226481,4.40024296 58.5607211,2.57686679 C55.5923533,0.865092734 49.0772744,3.26041404 42.106515,9.32674245 C35.8300021,14.7889879 29.3297318,22.9862573 23.8876056,32.4230068 Z M20.3933991,30.4079241 C26.0477388,20.6031925 32.8241352,12.0577097 39.4585391,6.28400334 C47.5943552,-0.796219734 55.6499676,-3.75793064 60.575742,-0.917375307 C65.7127038,2.04493648 67.2169719,11.0424516 64.9161643,22.210811 C63.2395151,30.3493104 59.2700321,40.0353419 53.7339969,49.6350994 C47.925103,59.7079403 41.4950864,68.1096399 35.2676734,73.5530701 C26.9831933,80.7948706 18.4752191,83.7996484 13.4058748,80.8763301 C8.49785541,78.0458029 6.95567363,69.7869335 8.93052609,59.386139 C10.5752661,50.723783 14.6691087,40.334037 20.3933991,30.4079241 Z" id="Shape-Copy" fill="#00FF00"></path>
                    <path d="M20.526261,32.4230068 C15.0160448,41.977908 11.0867815,51.9499688 9.53199382,60.1385726 C7.84308343,69.0334194 9.08130572,75.6644898 12.0596074,77.3821204 C13.4592192,78.1892289 15.7747736,78.1597615 18.6819894,77.1330144 C21.9172933,75.9903958 25.5883719,73.7183975 29.2516826,70.5161489 C35.1033713,65.4011422 41.2739262,57.338465 46.8784372,47.6200316 C52.2133341,38.3690579 56.0225733,29.0740413 57.6041705,21.3969263 C59.590741,11.7539069 58.3613035,4.40024296 55.1993765,2.57686679 C52.2310087,0.865092734 45.7159299,3.26041404 38.7451704,9.32674245 C32.4686575,14.7889879 25.9683873,22.9862573 20.526261,32.4230068 Z M17.0320545,30.4079241 C22.6863943,20.6031925 29.4627907,12.0577097 36.0971946,6.28400334 C44.2330106,-0.796219734 52.2886231,-3.75793064 57.2143975,-0.917375307 C62.3513593,2.04493648 63.8556273,11.0424516 61.5548198,22.210811 C59.8781706,30.3493104 55.9086876,40.0353419 50.3726523,49.6350994 C44.5637584,59.7079403 38.1337418,68.1096399 31.9063289,73.5530701 C23.6218488,80.7948706 15.1138746,83.7996484 10.0445303,80.8763301 C5.13651088,78.0458029 3.59432909,69.7869335 5.56918155,59.386139 C7.21392157,50.723783 11.3077641,40.334037 17.0320545,30.4079241 Z" id="Shape-Copy-2" fill="#FFFF00"></path>
                    <path d="M17.1649165,32.4230068 C11.6547002,41.977908 7.72543696,51.9499688 6.17064928,60.1385726 C4.48173889,69.0334194 5.71996118,75.6644898 8.69826286,77.3821204 C10.0978746,78.1892289 12.4134291,78.1597615 15.3206448,77.1330144 C18.5559488,75.9903958 22.2270273,73.7183975 25.890338,70.5161489 C31.7420268,65.4011422 37.9125816,57.338465 43.5170927,47.6200316 C48.8519895,38.3690579 52.6612288,29.0740413 54.242826,21.3969263 C56.2293964,11.7539069 54.999959,4.40024296 51.838032,2.57686679 C48.8696642,0.865092734 42.3545854,3.26041404 35.3838259,9.32674245 C29.107313,14.7889879 22.6070428,22.9862573 17.1649165,32.4230068 Z M13.67071,30.4079241 C19.3250497,20.6031925 26.1014461,12.0577097 32.73585,6.28400334 C40.8716661,-0.796219734 48.9272785,-3.75793064 53.853053,-0.917375307 C58.9900147,2.04493648 60.4942828,11.0424516 58.1934752,22.210811 C56.5168261,30.3493104 52.547343,40.0353419 47.0113078,49.6350994 C41.2024139,59.7079403 34.7723973,68.1096399 28.5449843,73.5530701 C20.2605043,80.7948706 11.75253,83.7996484 6.68318577,80.8763301 C1.77516634,78.0458029 0.232984553,69.7869335 2.20783701,59.386139 C3.85257704,50.723783 7.9464196,40.334037 13.67071,30.4079241 Z" id="Shape-Copy-3" fill="#FF6600"></path>
                    <path d="M13.803572,32.4230068 C8.29335569,41.977908 4.36409242,51.9499688 2.80930475,60.1385726 C1.12039435,69.0334194 2.35861664,75.6644898 5.33691832,77.3821204 C6.73653009,78.1892289 9.05208453,78.1597615 11.9593003,77.1330144 C15.1946042,75.9903958 18.8656828,73.7183975 22.5289935,70.5161489 C28.3806822,65.4011422 34.5512371,57.338465 40.1557481,47.6200316 C45.490645,38.3690579 49.2998842,29.0740413 50.8814815,21.3969263 C52.8680519,11.7539069 51.6386145,4.40024296 48.4766874,2.57686679 C45.5083197,0.865092734 38.9932408,3.26041404 32.0224814,9.32674245 C25.7459684,14.7889879 19.2456982,22.9862573 13.803572,32.4230068 Z M10.3093655,30.4079241 C15.9637052,20.6031925 22.7401016,12.0577097 29.3745055,6.28400334 C37.5103216,-0.796219734 45.565934,-3.75793064 50.4917084,-0.917375307 C55.6286702,2.04493648 57.1329383,11.0424516 54.8321307,22.210811 C53.1554815,30.3493104 49.1859985,40.0353419 43.6499632,49.6350994 C37.8410693,59.7079403 31.4110528,68.1096399 25.1836398,73.5530701 C16.8991597,80.7948706 8.39118549,83.7996484 3.32184123,80.8763301 C-1.5861782,78.0458029 -3.12835998,69.7869335 -1.15350752,59.386139 C0.491232498,50.723783 4.58507506,40.334037 10.3093655,30.4079241 Z" id="Shape-Copy-4" fill="#FF0000"></path>
                </g>
                <g id="logo-copy" transform="translate(35.378151, 40.000000) scale(-1, 1) translate(-35.378151, -40.000000) ">
                    <path d="M30.6102946,32.4230068 C25.1000784,41.977908 21.1708151,51.9499688 19.6160274,60.1385726 C17.927117,69.0334194 19.1653393,75.6644898 22.143641,77.3821204 C23.5432528,78.1892289 25.8588072,78.1597615 28.766023,77.1330144 C32.0013269,75.9903958 35.6724055,73.7183975 39.3357162,70.5161489 C45.1874049,65.4011422 51.3579598,57.338465 56.9624708,47.6200316 C62.2973677,38.3690579 66.1066069,29.0740413 67.6882042,21.3969263 C69.6747746,11.7539069 68.4453371,4.40024296 65.2834101,2.57686679 C62.3150424,0.865092734 55.7999635,3.26041404 48.8292041,9.32674245 C42.5526911,14.7889879 36.0524209,22.9862573 30.6102946,32.4230068 Z M27.1160882,30.4079241 C32.7704279,20.6031925 39.5468243,12.0577097 46.1812282,6.28400334 C54.3170443,-0.796219734 62.3726567,-3.75793064 67.2984311,-0.917375307 C72.4353929,2.04493648 73.939661,11.0424516 71.6388534,22.210811 C69.9622042,30.3493104 65.9927212,40.0353419 60.4566859,49.6350994 C54.647792,59.7079403 48.2177754,68.1096399 41.9903625,73.5530701 C33.7058824,80.7948706 25.1979082,83.7996484 20.1285639,80.8763301 C15.2205445,78.0458029 13.6783627,69.7869335 15.6532152,59.386139 C17.2979552,50.723783 21.3917977,40.334037 27.1160882,30.4079241 Z" id="Shape-Copy-5" fill="#000080"></path>
                    <path d="M27.2489501,32.4230068 C21.7387338,41.977908 17.8094706,51.9499688 16.2546829,60.1385726 C14.5657725,69.0334194 15.8039948,75.6644898 18.7822965,77.3821204 C20.1819082,78.1892289 22.4974627,78.1597615 25.4046784,77.1330144 C28.6399824,75.9903958 32.311061,73.7183975 35.9743716,70.5161489 C41.8260604,65.4011422 47.9966152,57.338465 53.6011263,47.6200316 C58.9360232,38.3690579 62.7452624,29.0740413 64.3268596,21.3969263 C66.31343,11.7539069 65.0839926,4.40024296 61.9220656,2.57686679 C58.9536978,0.865092734 52.438619,3.26041404 45.4678595,9.32674245 C39.1913466,14.7889879 32.6910764,22.9862573 27.2489501,32.4230068 Z M23.7547436,30.4079241 C29.4090833,20.6031925 36.1854798,12.0577097 42.8198837,6.28400334 C50.9556997,-0.796219734 59.0113121,-3.75793064 63.9370866,-0.917375307 C69.0740483,2.04493648 70.5783164,11.0424516 68.2775088,22.210811 C66.6008597,30.3493104 62.6313766,40.0353419 57.0953414,49.6350994 C51.2864475,59.7079403 44.8564309,68.1096399 38.629018,73.5530701 C30.3445379,80.7948706 21.8365636,83.7996484 16.7672194,80.8763301 C11.8592,78.0458029 10.3170182,69.7869335 12.2918706,59.386139 C13.9366106,50.723783 18.0304532,40.334037 23.7547436,30.4079241 Z" id="Shape" fill="#00D8FF"></path>
                    <path d="M23.8876056,32.4230068 C18.3773893,41.977908 14.448126,51.9499688 12.8933384,60.1385726 C11.204428,69.0334194 12.4426503,75.6644898 15.4209519,77.3821204 C16.8205637,78.1892289 19.1361181,78.1597615 22.0433339,77.1330144 C25.2786379,75.9903958 28.9497164,73.7183975 32.6130271,70.5161489 C38.4647159,65.4011422 44.6352707,57.338465 50.2397818,47.6200316 C55.5746786,38.3690579 59.3839178,29.0740413 60.9655151,21.3969263 C62.9520855,11.7539069 61.7226481,4.40024296 58.5607211,2.57686679 C55.5923533,0.865092734 49.0772744,3.26041404 42.106515,9.32674245 C35.8300021,14.7889879 29.3297318,22.9862573 23.8876056,32.4230068 Z M20.3933991,30.4079241 C26.0477388,20.6031925 32.8241352,12.0577097 39.4585391,6.28400334 C47.5943552,-0.796219734 55.6499676,-3.75793064 60.575742,-0.917375307 C65.7127038,2.04493648 67.2169719,11.0424516 64.9161643,22.210811 C63.2395151,30.3493104 59.2700321,40.0353419 53.7339969,49.6350994 C47.925103,59.7079403 41.4950864,68.1096399 35.2676734,73.5530701 C26.9831933,80.7948706 18.4752191,83.7996484 13.4058748,80.8763301 C8.49785541,78.0458029 6.95567363,69.7869335 8.93052609,59.386139 C10.5752661,50.723783 14.6691087,40.334037 20.3933991,30.4079241 Z" id="Shape-Copy" fill="#00FF00"></path>
                    <path d="M20.526261,32.4230068 C15.0160448,41.977908 11.0867815,51.9499688 9.53199382,60.1385726 C7.84308343,69.0334194 9.08130572,75.6644898 12.0596074,77.3821204 C13.4592192,78.1892289 15.7747736,78.1597615 18.6819894,77.1330144 C21.9172933,75.9903958 25.5883719,73.7183975 29.2516826,70.5161489 C35.1033713,65.4011422 41.2739262,57.338465 46.8784372,47.6200316 C52.2133341,38.3690579 56.0225733,29.0740413 57.6041705,21.3969263 C59.590741,11.7539069 58.3613035,4.40024296 55.1993765,2.57686679 C52.2310087,0.865092734 45.7159299,3.26041404 38.7451704,9.32674245 C32.4686575,14.7889879 25.9683873,22.9862573 20.526261,32.4230068 Z M17.0320545,30.4079241 C22.6863943,20.6031925 29.4627907,12.0577097 36.0971946,6.28400334 C44.2330106,-0.796219734 52.2886231,-3.75793064 57.2143975,-0.917375307 C62.3513593,2.04493648 63.8556273,11.0424516 61.5548198,22.210811 C59.8781706,30.3493104 55.9086876,40.0353419 50.3726523,49.6350994 C44.5637584,59.7079403 38.1337418,68.1096399 31.9063289,73.5530701 C23.6218488,80.7948706 15.1138746,83.7996484 10.0445303,80.8763301 C5.13651088,78.0458029 3.59432909,69.7869335 5.56918155,59.386139 C7.21392157,50.723783 11.3077641,40.334037 17.0320545,30.4079241 Z" id="Shape-Copy-2" fill="#FFFF00"></path>
                    <path d="M17.1649165,32.4230068 C11.6547002,41.977908 7.72543696,51.9499688 6.17064928,60.1385726 C4.48173889,69.0334194 5.71996118,75.6644898 8.69826286,77.3821204 C10.0978746,78.1892289 12.4134291,78.1597615 15.3206448,77.1330144 C18.5559488,75.9903958 22.2270273,73.7183975 25.890338,70.5161489 C31.7420268,65.4011422 37.9125816,57.338465 43.5170927,47.6200316 C48.8519895,38.3690579 52.6612288,29.0740413 54.242826,21.3969263 C56.2293964,11.7539069 54.999959,4.40024296 51.838032,2.57686679 C48.8696642,0.865092734 42.3545854,3.26041404 35.3838259,9.32674245 C29.107313,14.7889879 22.6070428,22.9862573 17.1649165,32.4230068 Z M13.67071,30.4079241 C19.3250497,20.6031925 26.1014461,12.0577097 32.73585,6.28400334 C40.8716661,-0.796219734 48.9272785,-3.75793064 53.853053,-0.917375307 C58.9900147,2.04493648 60.4942828,11.0424516 58.1934752,22.210811 C56.5168261,30.3493104 52.547343,40.0353419 47.0113078,49.6350994 C41.2024139,59.7079403 34.7723973,68.1096399 28.5449843,73.5530701 C20.2605043,80.7948706 11.75253,83.7996484 6.68318577,80.8763301 C1.77516634,78.0458029 0.232984553,69.7869335 2.20783701,59.386139 C3.85257704,50.723783 7.9464196,40.334037 13.67071,30.4079241 Z" id="Shape-Copy-3" fill="#FF6600"></path>
                    <path d="M13.803572,32.4230068 C8.29335569,41.977908 4.36409242,51.9499688 2.80930475,60.1385726 C1.12039435,69.0334194 2.35861664,75.6644898 5.33691832,77.3821204 C6.73653009,78.1892289 9.05208453,78.1597615 11.9593003,77.1330144 C15.1946042,75.9903958 18.8656828,73.7183975 22.5289935,70.5161489 C28.3806822,65.4011422 34.5512371,57.338465 40.1557481,47.6200316 C45.490645,38.3690579 49.2998842,29.0740413 50.8814815,21.3969263 C52.8680519,11.7539069 51.6386145,4.40024296 48.4766874,2.57686679 C45.5083197,0.865092734 38.9932408,3.26041404 32.0224814,9.32674245 C25.7459684,14.7889879 19.2456982,22.9862573 13.803572,32.4230068 Z M10.3093655,30.4079241 C15.9637052,20.6031925 22.7401016,12.0577097 29.3745055,6.28400334 C37.5103216,-0.796219734 45.565934,-3.75793064 50.4917084,-0.917375307 C55.6286702,2.04493648 57.1329383,11.0424516 54.8321307,22.210811 C53.1554815,30.3493104 49.1859985,40.0353419 43.6499632,49.6350994 C37.8410693,59.7079403 31.4110528,68.1096399 25.1836398,73.5530701 C16.8991597,80.7948706 8.39118549,83.7996484 3.32184123,80.8763301 C-1.5861782,78.0458029 -3.12835998,69.7869335 -1.15350752,59.386139 C0.491232498,50.723783 4.58507506,40.334037 10.3093655,30.4079241 Z" id="Shape-Copy-4" fill="#FF0000"></path>
                </g>
            </g>
        </g>
    </g>
</svg>
